<?xml version="1.0" encoding="UTF-8" standalone="no"?>
<svg
   height="16"
   viewBox="0 0 16 16"
   width="16"
   version="1.1"
   id="svg4"
   sodipodi:docname="InputEventMouseButton.svg"
   inkscape:version="1.3 (0e150ed6c4, 2023-07-21)"
   xmlns:inkscape="http://www.inkscape.org/namespaces/inkscape"
   xmlns:sodipodi="http://sodipodi.sourceforge.net/DTD/sodipodi-0.dtd"
   xmlns="http://www.w3.org/2000/svg"
   xmlns:svg="http://www.w3.org/2000/svg">
  <defs
     id="defs4" />
  <sodipodi:namedview
     id="namedview4"
     pagecolor="#ffffff"
     bordercolor="#000000"
     borderopacity="0.25"
     inkscape:showpageshadow="2"
     inkscape:pageopacity="0.0"
     inkscape:pagecheckerboard="0"
     inkscape:deskcolor="#d1d1d1"
     inkscape:zoom="50.125"
     inkscape:cx="8"
     inkscape:cy="8"
     inkscape:window-width="1920"
     inkscape:window-height="997"
     inkscape:window-x="0"
     inkscape:window-y="0"
     inkscape:window-maximized="1"
     inkscape:current-layer="svg4" />
  <path
     d="M3.5 8.5v2.75a4 4 0 0 0 8 0V8.5zm3-1V4a4 4 0 0 0-3 3.5Z"
     fill="#e0e0e0"
     id="path1"
     style="stroke:none;stroke-opacity:1;fill:#90ef99;fill-opacity:1" />
  <path
     d="M7.5 4.127a2 2 0 0 0-2-2H4a2 2 0 0 1-2-2"
     stroke-linecap="round"
     stroke="#e0e0e0"
     fill="none"
     id="path2"
     style="stroke:#90ef98;stroke-opacity:1" />
  <path
     d="M11.5 7.5a4 4 0 0 0-3-3.5v3.5z"
     fill="#69c4d4"
     id="path3"
     style="fill:#8fef99;fill-opacity:1" />
  <path
     d="m12.2 5.5 1.6-.8m-2.5-.75 1.3-1.3m-2.85.4.8-1.6"
     stroke-width="1.25"
     stroke-linecap="round"
     stroke="#69c4d4"
     id="path4"
     style="stroke:#8fef99;stroke-opacity:1" />
</svg>
