<svg height="16" viewBox="0 0 16 16" width="16" xmlns="http://www.w3.org/2000/svg"><g fill="#8fef99"><path d="m4.55 5a.85.85 0 0 0 -.85.85v7.65a.85.85 0 0 0 .85.85h6.8a.85.85 0 0 0 .85-.85v-7.65a.85.85 0 0 0 -.85-.85zm3.95 1.2.282 1.129.345.14.994-.597.707.707-.598.997.143.342 1.127.282v1l-1.129.282-.14.344.597.995-.707.707-.997-.598-.343.143-.28 1.127h-1l-.283-1.13-.344-.139-.995.597-.707-.707.598-.997-.143-.343-1.127-.281v-1l1.13-.282.139-.344-.597-.995.707-.707.997.598.343-.143.281-1.127z"/><circle cx="8" cy="9.675" r="1"/><path d="m2 6.36v7.65a1.7 1.7 0 0 0 1.7 1.7h8.5a1.7 1.7 0 0 0 1.7-1.7v-7.65h-.85v7.65a.85.85 0 0 1 -.85.85h-8.5a.85.85 0 0 1 -.85-.85v-7.65z"/><path d="m10.5 3.6.75-1.5m-5.75 1.5-.75-1.5m3.25 1.1v-1.7" stroke="#8fef99" stroke-linecap="round" stroke-width="1.25"/></g></svg>