<svg height="16" viewBox="0 0 16 16" width="16" xmlns="http://www.w3.org/2000/svg"><path d="m4.55 5a.85.85 0 0 0 -.85.85v7.65a.85.85 0 0 0 .85.85h6.8a.85.85 0 0 0 .85-.85v-7.65a.85.85 0 0 0 -.85-.85zm.65 1.503h1.75v2.2l2-2.2h2.1l-2.884 3.172 2.884 3.172h-2.1l-2-2.2v2.2h-1.75z" fill="#90ef99"/><path d="m2 6.36v7.65a1.7 1.7 0 0 0 1.7 1.7h8.5a1.7 1.7 0 0 0 1.7-1.7v-7.65h-.85v7.65a.85.85 0 0 1 -.85.85h-8.5a.85.85 0 0 1 -.85-.85v-7.65z" fill="#90ef99"/><path d="m10.5 3.6.75-1.5m-5.75 1.5-.75-1.5m3.25 1.1v-1.7" fill="none" stroke="#8fef99" stroke-linecap="round" stroke-width="1.25"/></svg>