<svg height="16" viewBox="0 0 16 16" width="16" xmlns="http://www.w3.org/2000/svg"><path d="m5.25 3h2.3a1.15 1.15 0 0 1 1.15 1.15v9.2a1.15 1.15 0 0 1 -1.15 1.15h-2.3a1.15 1.15 0 0 1 -1.15-1.15v-2.3h-2.3a1.15 1.15 0 0 1 -1.15-1.15v-2.3a1.15 1.15 0 0 1 1.15-1.15h2.3v-2.3a1.15 1.15 0 0 1 1.15-1.15zm1.15 4.025a1.15 1.15 0 0 0 0 3.45 1.15 1.15 0 0 0 0-3.45z" fill="#90ef99"/><path d="m8.7 6.3h2.3a1.15 1.15 0 0 1 1.15 1.15v2.3a1.15 1.15 0 0 1 -1.15 1.15h-2.3" fill="#90ef99"/><path d="m13.25 7.25 1.7-.4m-2.2-1.35 1.3-1.3m-3.05.8.4-1.7" stroke="#8fef99" stroke-linecap="round" stroke-width="1.25"/></svg>